<mxfile host="app.diagrams.net" modified="2023-06-18T16:24:52.516Z" agent="Mozilla/5.0 (X11; Ubuntu; Linux x86_64; rv:109.0) Gecko/20100101 Firefox/114.0" version="21.4.0" etag="_YygtI-Q_BGy1ADUcHWJ" type="github">
  <diagram name="Page-1" id="RZ71AqKnohkaED5SFv_i">
    <mxGraphModel>
      <root>
        <mxCell id="0" />
        <mxCell id="1" parent="0" />
      </root>
    </mxGraphModel>
  </diagram>
</mxfile>
